<?xml version="1.0" encoding="UTF-8" standalone="no"?>
<!-- Created with Inkscape (http://www.inkscape.org/) -->

<svg
   version="1.1"
   id="svg1"
   width="448"
   height="674.66669"
   viewBox="0 0 448 674.66669"
   sodipodi:docname="rose.svg"
   inkscape:version="1.4.2 (ebf0e940, 2025-05-08)"
   xmlns:inkscape="http://www.inkscape.org/namespaces/inkscape"
   xmlns:sodipodi="http://sodipodi.sourceforge.net/DTD/sodipodi-0.dtd"
   xmlns="http://www.w3.org/2000/svg"
   xmlns:svg="http://www.w3.org/2000/svg">
  <defs
     id="defs1">
    <clipPath
       clipPathUnits="userSpaceOnUse"
       id="clipPath2">
      <path
         d="M 0,506 H 336 V 0 H 0 Z"
         transform="translate(-95.3335,-392.33351)"
         id="path2" />
    </clipPath>
    <clipPath
       clipPathUnits="userSpaceOnUse"
       id="clipPath4">
      <path
         d="M 0,506 H 336 V 0 H 0 Z"
         transform="translate(-84.625,-424.75001)"
         id="path4" />
    </clipPath>
    <clipPath
       clipPathUnits="userSpaceOnUse"
       id="clipPath6">
      <path
         d="M 0,506 H 336 V 0 H 0 Z"
         transform="translate(-186.667,-449.33351)"
         id="path6" />
    </clipPath>
    <clipPath
       clipPathUnits="userSpaceOnUse"
       id="clipPath8">
      <path
         d="M 0,506 H 336 V 0 H 0 Z"
         transform="translate(-175.25001,-467.25001)"
         id="path8" />
    </clipPath>
    <clipPath
       clipPathUnits="userSpaceOnUse"
       id="clipPath10">
      <path
         d="M 0,506 H 336 V 0 H 0 Z"
         transform="translate(-145.5444,-367.52691)"
         id="path10" />
    </clipPath>
    <clipPath
       clipPathUnits="userSpaceOnUse"
       id="clipPath12">
      <path
         d="M 0,506 H 336 V 0 H 0 Z"
         transform="translate(-216.50001,-312.50001)"
         id="path12" />
    </clipPath>
    <clipPath
       clipPathUnits="userSpaceOnUse"
       id="clipPath14">
      <path
         d="M 0,506 H 336 V 0 H 0 Z"
         transform="translate(-125.37501,-420.75001)"
         id="path14" />
    </clipPath>
    <clipPath
       clipPathUnits="userSpaceOnUse"
       id="clipPath16">
      <path
         d="M 0,506 H 336 V 0 H 0 Z"
         transform="translate(-173.125,-438.87501)"
         id="path16" />
    </clipPath>
    <clipPath
       clipPathUnits="userSpaceOnUse"
       id="clipPath18">
      <path
         d="M 0,506 H 336 V 0 H 0 Z"
         transform="translate(-173.5,-288)"
         id="path18" />
    </clipPath>
    <clipPath
       clipPathUnits="userSpaceOnUse"
       id="clipPath20">
      <path
         d="M 0,506 H 336 V 0 H 0 Z"
         transform="translate(-147.33351,-296.00001)"
         id="path20" />
    </clipPath>
    <clipPath
       clipPathUnits="userSpaceOnUse"
       id="clipPath22">
      <path
         d="M 0,506 H 336 V 0 H 0 Z"
         transform="translate(-189.16701,-292.3335)"
         id="path22" />
    </clipPath>
    <clipPath
       clipPathUnits="userSpaceOnUse"
       id="clipPath24">
      <path
         d="M 0,506 H 336 V 0 H 0 Z"
         transform="translate(-164.8164,-162.1377)"
         id="path24" />
    </clipPath>
    <clipPath
       clipPathUnits="userSpaceOnUse"
       id="clipPath26">
      <path
         d="M 0,506 H 336 V 0 H 0 Z"
         transform="translate(-164.8164,-162.1377)"
         id="path26" />
    </clipPath>
    <clipPath
       clipPathUnits="userSpaceOnUse"
       id="clipPath28">
      <path
         d="M 0,506 H 336 V 0 H 0 Z"
         transform="translate(-192.292,-198.75)"
         id="path28" />
    </clipPath>
  </defs>
  <sodipodi:namedview
     id="namedview1"
     pagecolor="#ffffff"
     bordercolor="#000000"
     borderopacity="0.25"
     inkscape:showpageshadow="2"
     inkscape:pageopacity="0.0"
     inkscape:pagecheckerboard="0"
     inkscape:deskcolor="#d1d1d1"
     inkscape:zoom="0.76633417"
     inkscape:cx="201.60918"
     inkscape:cy="275.3368"
     inkscape:window-width="1472"
     inkscape:window-height="897"
     inkscape:window-x="59"
     inkscape:window-y="44"
     inkscape:window-maximized="0"
     inkscape:current-layer="layer-MC10">
    <inkscape:page
       x="0"
       y="0"
       inkscape:label="1"
       id="page1"
       width="448"
       height="674.66669"
       margin="40.631466 42.192001 37.862667 89.675865"
       bleed="0" />
  </sodipodi:namedview>
  <g
     id="layer-MC0"
     inkscape:groupmode="layer"
     inkscape:label="Petal 1"
     style="fill:#d9c5b2;fill-opacity:1">
    <path
       id="path1"
       d="m 0,0 c -3.999,2.72 -13.99,-1.914 -15.667,-8 -0.959,-3.482 1.504,-4.895 0.667,-8.667 -1.335,-6.017 -8.508,-6.49 -11.333,-11.333 -4.706,-8.066 5.296,-21.445 7.666,-24.667 3.537,-4.806 9.802,-9.315 22.334,-18.333 6.26,-4.505 12.433,-8.667 20.718,-12.721 5.158,-2.523 14.868,-7.214 16.948,-4.612 0.838,1.047 0.125,3.268 -1.333,7.666 -1.144,3.449 -1.716,5.174 -3.364,8.292 -3.62,6.845 -3.655,18.942 -2.969,25.708 0.19,1.879 3.08,27.564 18.333,39.334 1.233,0.952 3.101,2.238 3.333,4.333 0.48,4.321 -6.517,7.391 -22,16.333 -15.485,8.944 -22.561,14.001 -28,11.334 C 4.771,24.391 2.72,23.385 2,21.333 c -1.175,-3.348 2.026,-7.106 3.333,-9 4.669,-6.765 1.742,-13.767 1.334,-26.666 -0.326,-10.288 -0.73,-23.047 5.666,-35.334 4.326,-8.308 13.537,-19.812 16,-22.333 1.597,-1.635 2.645,-3.818 4.459,-5.208 0.246,-0.189 1.033,-0.773 1.25,-1.75 0.163,-0.738 0.011,-1.737 -0.5,-2 -0.973,-0.501 -3.068,1.755 -3.875,2.625 -13.471,14.504 -12.879,13.702 -13.75,14.875 -6.491,8.734 -9.737,13.101 -10.125,13.875 -4.877,9.701 -5.121,19.32 -5.25,27.75 C 0.324,-7.687 3.232,-2.198 0,0"
       style="fill:#d9c5b2;fill-opacity:1;fill-rule:nonzero;stroke:#d9c5b2;stroke-width:1;stroke-linecap:butt;stroke-linejoin:miter;stroke-miterlimit:10;stroke-dasharray:none;stroke-opacity:1"
       transform="matrix(1.3333333,0,0,-1.3333333,127.11133,151.55533)"
       clip-path="url(#clipPath2)" />
  </g>
  <g
     id="layer-MC1"
     inkscape:groupmode="layer"
     inkscape:label="Petal 2"
     style="fill:#d9c5b2;fill-opacity:1">
    <path
       id="path3"
       d="m 0,0 c -2.171,2.465 -4.47,5.074 -6.125,9.375 -0.941,2.445 -3.307,8.875 -1,16.5 2.356,7.786 8.498,13.225 14.625,15.5 1.12,0.416 2.859,0.956 9.125,1.375 16.799,1.123 17.379,-1.886 24.5,-0.125 9.849,2.436 11.44,8.858 21.875,9.25 0.886,0.033 3.617,0.09 7,-0.75 7.056,-1.751 13.912,-6.647 13.25,-9.375 -0.264,-1.086 -1.69,-1.704 -2.375,-2 -2.286,-0.989 -4.604,-0.292 -5.25,-0.125 C 72.511,40.433 68.382,38.633 60.25,35 52.545,31.558 48.404,29.708 43.375,25.75 c -5.184,-4.08 -8.868,-7.067 -9.625,-12 -0.188,-1.226 -1.029,-6.702 2,-9.75 0.884,-0.889 1.703,-1.176 2,-2.25 0.582,-2.104 -1.425,-5.105 -4,-6.125 -2.238,-0.886 -4.465,-0.1 -6.875,0.75 -2.04,0.72 -2.115,1.138 -3.875,1.875 -0.839,0.351 -7.39,2.993 -12.25,0.125 -2.292,-1.353 -2.25,-2.775 -4,-3 C 4.395,-4.927 2.298,-2.608 0,0"
       style="fill:#d9c5b2;fill-opacity:1;fill-rule:nonzero;stroke:#d9c5b2;stroke-width:1;stroke-linecap:butt;stroke-linejoin:miter;stroke-miterlimit:10;stroke-dasharray:none;stroke-opacity:1"
       transform="matrix(1.3333333,0,0,-1.3333333,112.83333,108.33333)"
       clip-path="url(#clipPath4)" />
  </g>
  <g
     id="layer-MC2"
     inkscape:groupmode="layer"
     inkscape:label="Petal 3"
     style="fill:#d9c5b2;fill-opacity:1">
    <path
       id="path5"
       d="m 0,0 c -0.635,1.63 -2.063,4.15 -5.833,6.5 -5.685,3.542 -11.632,3.544 -15.334,3.5 -7.087,-0.085 -12.34,-2.002 -16.333,-3.5 -3.388,-1.271 -1.337,-0.856 -14.333,-7.667 -5.814,-3.046 -8.878,-4.52 -10.167,-8 -0.832,-2.245 -0.605,-4.465 -0.5,-5.5 0.16,-1.575 0.577,-5.666 3,-6.5 1.138,-0.392 2.267,0.091 2.833,0.334 2.347,1.003 2.537,2.909 4,4.333 3.35,3.258 11.444,2.115 16.167,0 1.261,-0.565 3,-1.521 5.5,-1.5 0.715,0.006 2.645,0.045 4.5,1.167 2.143,1.295 2.359,2.931 4,5.166 2.324,3.168 5.376,4.634 6.833,5.334 1.558,0.748 5.993,2.878 11,1.833 2.526,-0.527 3.9,-1.592 4.833,-0.833 C 1.589,-4.178 0.12,-0.311 0,0"
       style="fill:#d9c5b2;fill-opacity:1;fill-rule:nonzero;stroke:#d9c5b2;stroke-width:1;stroke-linecap:butt;stroke-linejoin:miter;stroke-miterlimit:10;stroke-dasharray:none;stroke-opacity:1"
       transform="matrix(1.3333333,0,0,-1.3333333,248.88933,75.555333)"
       clip-path="url(#clipPath6)" />
  </g>
  <g
     id="layer-MC3"
     inkscape:groupmode="layer"
     inkscape:label="Petal 4"
     style="fill:#d9c5b2;fill-opacity:1">
    <path
       id="path7"
       d="m 0,0 c 1.872,5.407 9.761,7.165 15.75,8.5 3.814,0.85 10.459,1.918 19,1 6.541,-0.703 11.582,-1.245 17,-4.75 2.051,-1.327 7.23,-4.777 10,-11.5 2.893,-7.021 1.434,-13.429 0.75,-16.25 -0.658,-2.715 -2.27,-7.736 -14.75,-21.5 -4.18,-4.609 -8.94,-9.827 -16.25,-16.25 -10.328,-9.076 -19.468,-15.044 -24.25,-18 -11.875,-7.339 -16.905,-8.48 -22.5,-12 -2.154,-1.355 -4.688,-1.998 -6.937,-3.188 -0.258,-0.136 -1.39,-0.739 -2.875,-0.687 -0.542,0.019 -1.561,0.054 -1.938,0.625 -0.667,1.008 0.992,3.197 1.563,3.937 7.011,9.095 10.749,12 10.749,12 8.818,6.853 6.086,7.28 15.438,14.813 7.099,5.718 15.979,11.357 20.667,14.333 7.069,4.489 10.098,6.041 11.333,10 1.321,4.236 0.294,10.273 -3.333,13 -3.98,2.993 -9.261,0.623 -11.334,4 -0.844,1.376 -0.084,1.959 -0.75,4.417 -1.347,4.976 -5.881,7.837 -6.666,8.333 C 5.564,-5.946 1.53,-7.483 0,-4.5 -0.93,-2.687 -0.212,-0.614 0,0"
       style="fill:#d9c5b2;fill-opacity:1;fill-rule:nonzero;stroke:#d9c5b2;stroke-width:1;stroke-linecap:butt;stroke-linejoin:miter;stroke-miterlimit:10;stroke-dasharray:none;stroke-opacity:1"
       transform="matrix(1.3333333,0,0,-1.3333333,233.66667,51.666667)"
       clip-path="url(#clipPath8)" />
  </g>
  <g
     id="layer-MC4"
     inkscape:groupmode="layer"
     inkscape:label="Petal 5"
     style="fill:#d9c5b2;fill-opacity:1">
    <path
       id="path9"
       d="m 0,0 c 2.088,1.257 3.512,1.174 7.186,2.121 3.29,0.847 6.026,2.065 11.5,4.5 4.251,1.891 13.296,5.915 22.999,12.166 15.436,9.943 36.882,28.322 41.334,36 0.303,0.523 1.381,2.468 2.5,2.334 1.631,-0.197 2.355,-4.692 2.666,-6.834 3.404,-23.386 2.334,-33.333 2.334,-33.333 -2.155,-20.013 -3.47,-32.223 -10.5,-47.833 -4.123,-9.155 -11.358,-24.747 -26.334,-34.834 -3.569,-2.404 -9.775,-6.49 -18.666,-7.833 -2.632,-0.398 -6.866,-0.21 -15.333,0.167 -8.114,0.36 -10.769,0.885 -13.334,2.666 -0.98,0.68 -2.203,1.721 -5.5,7 -4.258,6.817 -6.437,10.306 -8.166,15.667 -2.042,6.329 -2.191,11.341 -2.334,16.167 -0.346,11.662 2.107,19.247 3.167,22.166 C -4.147,-3.285 -1.912,-1.151 0,0"
       style="fill:#d9c5b2;fill-opacity:1;fill-rule:nonzero;stroke:#d9c5b2;stroke-width:1;stroke-linecap:butt;stroke-linejoin:miter;stroke-miterlimit:10;stroke-dasharray:none;stroke-opacity:1"
       transform="matrix(1.3333333,0,0,-1.3333333,194.0592,184.6308)"
       clip-path="url(#clipPath10)" />
  </g>
  <g
     id="layer-MC5"
     inkscape:groupmode="layer"
     inkscape:label="Petal 6"
     style="fill:#d9c5b2;fill-opacity:1">
    <path
       id="path11"
       d="M 0,0 C 0.371,2.273 2.101,3.199 4.167,5.5 5.13,6.573 5.918,7.667 9,14 c 4.921,10.109 7.382,15.164 9.5,21 2.102,5.788 4.547,12.525 6,21.75 1.107,7.031 2.296,14.578 1,24.25 -1.215,9.062 -4.141,16.483 -1,18.75 0.831,0.6 1.769,0.608 3.5,0.625 3.926,0.037 6.558,-1.679 9.688,-3.25 4.583,-2.301 3.854,-1.088 10.562,-4 6.128,-2.66 9.192,-3.99 12,-6.375 2.632,-2.236 2.358,-2.995 8.25,-12.25 0.842,-1.323 4.783,-7.49 10,-14.75 2.003,-2.788 6,-8.25 6,-8.25 0,0 2.573,-0.497 2.833,-1.5 0.205,-0.788 -0.979,-2.044 -2.333,-2.5 -1.875,-0.63 -3.474,0.477 -5,1 C 76.237,49.791 72.36,47.725 68.5,45.667 64.287,43.421 61.967,40.694 57.5,35.333 52.215,28.991 48.856,23.279 47.833,21.5 43.971,14.783 44.32,13.543 40.833,8.833 37.686,4.582 34.7,1.943 32.667,0.167 28.81,-3.203 26.775,-4.939 23.5,-5.833 20.963,-6.526 20.694,-5.89 15,-6 6.637,-6.162 4.251,-7.591 2,-5.667 0.364,-4.268 -0.305,-1.864 0,0"
       style="fill:#d9c5b2;fill-opacity:1;fill-rule:nonzero;stroke:#d9c5b2;stroke-width:1;stroke-linecap:butt;stroke-linejoin:miter;stroke-miterlimit:10;stroke-dasharray:none;stroke-opacity:1"
       transform="matrix(1.3333333,0,0,-1.3333333,288.66667,258)"
       clip-path="url(#clipPath12)" />
  </g>
  <g
     id="layer-MC6"
     inkscape:groupmode="layer"
     inkscape:label="Petal 7"
     style="fill:#d9c5b2;fill-opacity:1">
    <path
       id="path13"
       d="m 0,0 c 1.675,3.296 4.825,4.705 7.25,5.75 5.135,2.212 9.713,2.176 12.5,2.125 2.366,-0.043 6.541,-0.155 11.375,-2 6.705,-2.559 6.632,-5.381 13.625,-8.5 2.428,-1.083 4.405,-2.997 6.75,-4.25 0.586,-0.313 1.635,-0.857 1.875,-1.875 0.302,-1.283 -0.856,-2.565 -1.375,-3.125 -1.902,-2.051 -3.829,-2.265 -6.375,-3.375 -5.705,-2.488 -9.489,-7.287 -9.75,-7.625 -1.696,-2.195 -1.946,-3.416 -3.375,-3.75 -1.737,-0.406 -3.321,0.941 -6.375,3.375 -2.555,2.036 -5.169,3.997 -7.75,6 -3.471,2.694 -6.606,5.127 -11,7.375 -4.757,2.434 -7.542,2.886 -8.25,5.375 C -1.382,-2.719 -0.509,-1.002 0,0"
       style="fill:#d9c5b2;fill-opacity:1;fill-rule:nonzero;stroke:#d9c5b2;stroke-width:1;stroke-linecap:butt;stroke-linejoin:miter;stroke-miterlimit:10;stroke-dasharray:none;stroke-opacity:1"
       transform="matrix(1.3333333,0,0,-1.3333333,167.16667,113.66667)"
       clip-path="url(#clipPath14)" />
  </g>
  <g
     id="layer-MC7"
     inkscape:groupmode="layer"
     inkscape:label="Petal 8"
     style="fill:#d9c5b2;fill-opacity:1">
    <path
       id="path15"
       d="m 0,0 c 1.333,0.689 3.306,0.917 7.25,1.375 5.467,0.634 8.199,0.951 11.125,0.25 0.763,-0.183 4.257,-1.07 7.625,-3.875 1.769,-1.473 3.233,-2.693 3.375,-4.5 0.182,-2.318 -1.926,-4.182 -4.125,-6.125 -4.149,-3.668 -5.794,-2.708 -8.375,-5.75 -2.338,-2.755 -2.263,-5.042 -4.25,-5.5 -0.34,-0.078 -1.483,-0.274 -4.25,1.625 -4.455,3.059 -4.297,5.496 -7.75,7.875 -3.646,2.512 -5.779,1.142 -6.875,3.125 C -7.904,-8.507 -4.685,-2.42 0,0"
       style="fill:#d9c5b2;fill-opacity:1;fill-rule:nonzero;stroke:#d9c5b2;stroke-width:1;stroke-linecap:butt;stroke-linejoin:miter;stroke-miterlimit:10;stroke-dasharray:none;stroke-opacity:1"
       transform="matrix(1.3333333,0,0,-1.3333333,230.83333,89.5)"
       clip-path="url(#clipPath16)" />
  </g>
  <g
     id="layer-MC8"
     inkscape:groupmode="layer"
     inkscape:label="Tige">
    <path
       id="path17"
       d="M 0,0 C 0.923,1.212 3.104,-0.251 6.75,0.75 7.659,1 8.131,1.257 8.688,1 9.745,0.511 9.847,-1.256 10,-2.875 c 0.232,-2.455 0.878,-4.859 1.125,-7.313 0.388,-3.853 0.954,-5.546 1.625,-9.062 1.602,-8.394 2.053,-18.031 2.25,-22.25 0.24,-5.128 0.437,-13.434 -0.25,-23.75 -0.697,-10.469 -1.481,-10.659 -4.25,-33.5 -1.33,-10.972 -1.307,-12.232 -2.25,-17.5 -0.867,-4.846 -1.964,-9.797 -5.5,-22.5 -3.401,-12.221 -4.558,-15.439 -7.75,-26.5 -5.289,-18.328 -4.188,-16.676 -7.5,-27.417 -4.794,-15.543 -7.24,-23.475 -12,-33.666 -4.245,-9.09 -9.989,-19.246 -9,-25.667 0.096,-0.623 0.545,-3.092 -0.792,-4.333 -1.19,-1.106 -3.206,-0.688 -5.75,-0.125 -3.703,0.819 -7.216,1.597 -9.125,4.708 -0.266,0.435 -1.482,2.417 -1.083,4.75 0.343,2.004 1.712,3.297 2.083,3.667 3.456,3.436 4.946,10.755 7,17.5 1.722,5.65 1.746,4.024 8.667,21 5.991,14.692 5.588,14.968 13,33.833 7.354,18.719 7.835,18.665 10.25,26.25 3.09,9.707 4.574,16.935 7,28.75 2.011,9.794 3.995,19.457 5.5,32.75 C 5.062,-67.251 5.173,-54.876 5.167,-50 5.148,-35.079 3.961,-33.97 3.5,-20 3.295,-13.78 3.417,-10.565 1.792,-7.875 0.375,-5.531 0.209,-4.41 -0.125,-2.167 -0.352,-0.64 -0.187,-0.245 0,0"
       style="fill:none;fill-opacity:1;fill-rule:nonzero;stroke:#d9c5b2;stroke-width:1;stroke-linecap:butt;stroke-linejoin:miter;stroke-miterlimit:10;stroke-dasharray:none;stroke-opacity:1"
       transform="matrix(1.3333333,0,0,-1.3333333,231.33333,290.66667)"
       clip-path="url(#clipPath18)" />
  </g>
  <g
     id="layer-MC9"
     inkscape:groupmode="layer"
     inkscape:label="Under Leaf"
     style="display:inline">
    <path
       id="path19"
       d="m 0,0 c 1.5,-0.474 1.424,-1.314 5,-3.167 2.022,-1.048 3.85,-1.995 6.333,-2.333 3.493,-0.476 4.622,0.751 5.667,-0.167 2.355,-2.069 -1.65,-9.822 -2,-10.5 -1.121,-2.17 -2.501,-4.755 -5.333,-6 -1.848,-0.812 -3.517,-0.703 -4.334,-0.666 0,0 -4.783,0.216 -15.166,-2.167 -10.341,-2.373 -14.178,-9.021 -16.5,-7.333 -2.428,1.765 0.765,9.758 1,10.333 0.703,1.725 2.223,4.891 10.333,12.5 C -4.023,0.799 -1.107,0.35 0,0"
       style="fill:none;fill-opacity:1;fill-rule:nonzero;stroke:#d9c5b2;stroke-width:1;stroke-linecap:butt;stroke-linejoin:miter;stroke-miterlimit:10;stroke-dasharray:none;stroke-opacity:1"
       transform="matrix(1.3333333,0,0,-1.3333333,196.44467,280)"
       clip-path="url(#clipPath20)" />
    <path
       id="path21"
       d="m 0,0 c 0.346,0.993 1.927,0.596 5.333,2 2.658,1.095 4.314,2.417 7.5,5 5.869,4.759 5.319,5.836 7.5,6.5 3.146,0.957 6.307,-0.904 12.5,-4.667 C 39.257,4.93 42.47,2.979 45.166,-1 c 4.139,-6.106 5.115,-13.851 3.5,-14.667 -1.153,-0.583 -2.68,2.851 -7.333,5 -3.01,1.39 -5.274,1.294 -12.167,1.167 C 14.158,-9.777 12.939,-9.54 11.666,-9.167 4.842,-7.165 -0.716,-2.052 0,0"
       style="fill:none;fill-opacity:1;fill-rule:nonzero;stroke:#d9c5b2;stroke-width:1;stroke-linecap:butt;stroke-linejoin:miter;stroke-miterlimit:10;stroke-dasharray:none;stroke-opacity:1"
       transform="matrix(1.3333333,0,0,-1.3333333,252.22267,284.88867)"
       clip-path="url(#clipPath22)" />
  </g>
  <g
     id="layer-MC10"
     inkscape:groupmode="layer"
     inkscape:label="Leaf 1">
    <path
       id="path23"
       d="m 0,0 c 0.409,0.379 0.904,1.62 -2.097,7.088 -2.685,4.892 -5.564,10.139 -11.857,15.066 -6.537,5.118 -12.883,6.861 -15.76,7.618 -2.632,0.694 -7.493,1.722 -13.616,1.481 -8.934,-0.352 -9.49,-2.97 -17.098,-3.146 -9.731,-0.223 -14.805,3.921 -16.82,1.493 -1.443,-1.741 0.104,-5.141 2.655,-10.748 2.506,-5.509 4.84,-10.639 10.026,-15.879 4.745,-4.795 9.161,-6.938 16.087,-10.297 7.163,-3.475 13.259,-6.432 21.994,-7.171 2.28,-0.193 11.331,-0.793 19.924,3.794 1.133,0.604 5.181,2.805 4.83,4.592 -0.202,1.022 0.86,5.3 1.732,6.109"
       style="fill:none;fill-opacity:1;fill-rule:nonzero;stroke:#d9c5b2;stroke-opacity:1"
       transform="matrix(1.3333333,0,0,-1.3333333,219.7552,458.48307)"
       clip-path="url(#clipPath24)" />
    <path
       id="path25"
       d="m 0,0 c 0.409,0.379 0.904,1.62 -2.097,7.088 -2.685,4.892 -5.564,10.139 -11.857,15.066 -6.537,5.118 -12.883,6.861 -15.76,7.618 -2.632,0.694 -7.493,1.722 -13.616,1.481 -8.934,-0.352 -9.49,-2.97 -17.098,-3.146 -9.731,-0.223 -14.805,3.921 -16.82,1.493 -1.443,-1.741 0.104,-5.141 2.655,-10.748 2.506,-5.509 4.84,-10.639 10.026,-15.879 4.745,-4.795 9.161,-6.938 16.087,-10.297 7.163,-3.475 13.259,-6.432 21.994,-7.171 2.28,-0.193 11.331,-0.793 19.924,3.794 1.133,0.604 5.181,2.805 4.83,4.592 -0.202,1.022 0.86,5.3 1.732,6.109 z"
       style="fill:none;stroke:#d9c5b2;stroke-width:1;stroke-linecap:butt;stroke-linejoin:miter;stroke-miterlimit:10;stroke-dasharray:none;stroke-opacity:1"
       transform="matrix(1.3333333,0,0,-1.3333333,219.7552,458.48307)"
       clip-path="url(#clipPath26)" />
  </g>
  <g
     id="layer-MC11"
     inkscape:groupmode="layer"
     inkscape:label="Lead 2">
    <path
       id="path27"
       d="m 0,0 c 1.146,4.702 1.736,7.118 3.291,10.125 0.719,1.389 4.448,8.645 11.75,12.375 5.573,2.848 9.222,1.653 16.625,2.125 19.235,1.225 27.08,11.351 31.25,7.625 4.33,-3.867 -1.393,-17.219 -5,-23.375 -4.83,-8.245 -11.292,-12.851 -14.375,-15 -6.777,-4.726 -12.867,-6.612 -14.625,-7.125 -3.295,-0.961 -12.176,-3.507 -21,-0.75 -5.776,1.805 -7.487,4.613 -7.958,5.5 -0.748,1.408 -0.943,2.819 -0.965,2.984 C -1.216,-3.925 -0.751,-3.076 0,0"
       style="fill:none;fill-opacity:1;fill-rule:nonzero;stroke:#d9c5b2;stroke-width:1;stroke-linecap:butt;stroke-linejoin:miter;stroke-miterlimit:10;stroke-dasharray:none;stroke-opacity:1"
       transform="matrix(1.3333333,0,0,-1.3333333,256.38933,409.66667)"
       clip-path="url(#clipPath28)" />
  </g>
</svg>
